<svg xmlns="http://www.w3.org/2000/svg" data-name="Layer 1" viewBox="0 0 48 60" x="0px" y="0px"><title>tasks</title><path d="M32.33,20.46a1.61,1.61,0,0,0-2.22,0l-9.32,9.33-2.9-2.91a1.58,1.58,0,0,0-2.22,0L12.46,30.1a1.56,1.56,0,0,0,0,2.21l7.22,7.23a1.57,1.57,0,0,0,2.22,0L35.54,25.89a1.58,1.58,0,0,0,0-2.22ZM20.79,37.82,14.18,31.2l2.6-2.6,4,4L31.22,22.18l2.6,2.6Z"/><path d="M43,2H39V1a1,1,0,0,0-2,0V2H25V1a1,1,0,0,0-2,0V2H11V1A1,1,0,0,0,9,1V2H5A5,5,0,0,0,0,7V43a5,5,0,0,0,5,5H43a5,5,0,0,0,5-5V7A5,5,0,0,0,43,2Zm3,41a3,3,0,0,1-3,3H5a3,3,0,0,1-3-3V7A3,3,0,0,1,5,4H9V7a1,1,0,0,0,2,0V4H23V7a1,1,0,0,0,2,0V4H37V7a1,1,0,0,0,2,0V4h4a3,3,0,0,1,3,3Z"/><path d="M40,13H8a1,1,0,0,0,0,2H40a1,1,0,0,0,0-2Z"/></svg>