<?xml version="1.0" encoding="utf-8"?>
<!-- Generator: Adobe Illustrator 24.1.0, SVG Export Plug-In . SVG Version: 6.00 Build 0)  -->
<svg version="1.1" id="Layer_1" xmlns="http://www.w3.org/2000/svg" xmlns:xlink="http://www.w3.org/1999/xlink" x="0px" y="0px"
	 viewBox="0 0 16 16" style="enable-background:new 0 0 16 16;" xml:space="preserve">
<style type="text/css">
	.st0{fill:none;stroke:#FFFFFF;stroke-width:2;stroke-linecap:round;stroke-linejoin:round;}
	.st1{fill:#FFFFFF;}
</style>
<path class="st0" d="M14.5,8"/>
<path class="st1" d="M14.5,8"/>
<g transform="translate(0,-952.36218)">
	<path class="st1" d="M7,956.4c-0.3,0-0.6,0.3-0.6,0.6v0.3H4.7c0,0,0,0,0,0c-0.1,0-0.3,0.1-0.3,0.3c0,0.1,0.1,0.3,0.3,0.3
		c0,0,0,0,0,0h5.7l-0.2,5.9c0,0.1,0,0.1-0.1,0.1H5.9c-0.1,0-0.1,0-0.1-0.1l-0.2-5.3c0-0.1-0.1-0.3-0.3-0.3s-0.3,0.1-0.3,0.3l0.2,5.3
		c0,0.3,0.3,0.6,0.6,0.6h4.3c0.3,0,0.6-0.3,0.6-0.6l0.2-6h0.4c0.1,0,0.3-0.1,0.3-0.3s-0.1-0.3-0.3-0.3c0,0,0,0,0,0H9.6V957
		c0-0.3-0.3-0.6-0.6-0.6H7z M7,956.9h2c0.1,0,0.1,0,0.1,0.1v0.3H6.9L7,956.9C6.9,956.9,7,956.9,7,956.9z M6.8,958.7
		c-0.1,0-0.3,0.1-0.3,0.3c0,0,0,0,0,0v3.7c0,0.1,0.1,0.3,0.3,0.3c0.1,0,0.3-0.1,0.3-0.3c0,0,0,0,0,0v-3.7
		C7,958.8,6.9,958.7,6.8,958.7C6.8,958.7,6.8,958.7,6.8,958.7z M8,958.7c-0.1,0-0.3,0.1-0.3,0.3c0,0,0,0,0,0v3.7
		c0,0.1,0.1,0.3,0.3,0.3c0.1,0,0.3-0.1,0.3-0.3c0,0,0,0,0,0v-3.7C8.3,958.8,8.2,958.7,8,958.7C8,958.7,8,958.7,8,958.7z M9.2,958.7
		c-0.1,0-0.3,0.1-0.3,0.3c0,0,0,0,0,0v3.7c0,0.1,0.1,0.3,0.3,0.3s0.3-0.1,0.3-0.3c0,0,0,0,0,0v-3.7C9.5,958.8,9.4,958.7,9.2,958.7
		C9.3,958.7,9.2,958.7,9.2,958.7z"/>
</g>
</svg>
